<svg xmlns="http://www.w3.org/2000/svg" version="1.1" xmlns:xlink="http://www.w3.org/1999/xlink" xmlns:svgjs="http://svgjs.com/svgjs" width="1440" height="560" preserveAspectRatio="none" viewBox="0 0 1440 560"><g mask="url(&quot;#SvgjsMask1000&quot;)" fill="none"><rect width="1440" height="560" x="0" y="0" fill="#0e2a47"></rect><path d="M954.05 377.38 a51.08 51.08 0 1 0 102.16 0 a51.08 51.08 0 1 0 -102.16 0z" stroke="#d3b714"></path><path d="M580.31 279.41L612.34 279.41L612.34 311.44L580.31 311.44z" fill="#037b0b"></path><path d="M444.88 292.61L455.4 292.61L455.4 303.13L444.88 303.13z" stroke="#e73635"></path><path d="M636.7 372.59L637.64 372.59L637.64 398.2L636.7 398.2z" stroke="#e73635"></path><path d="M1331.23 518.34L1345.23 518.34L1345.23 532.34L1331.23 532.34z" fill="#d3b714"></path><path d="M536.17 38.48 a33.43 33.43 0 1 0 66.86 0 a33.43 33.43 0 1 0 -66.86 0z" fill="#037b0b"></path><path d="M1106.87 201.4L1159.21 201.4L1159.21 253.74L1106.87 253.74z" fill="#e73635"></path><path d="M410.91 113.92L462.16 113.92L462.16 165.17L410.91 165.17z" stroke="#e73635"></path><path d="M71.35 396.62 a10.02 10.02 0 1 0 20.04 0 a10.02 10.02 0 1 0 -20.04 0z" fill="#e73635"></path><path d="M7.27 430.87L41.8 430.87L41.8 470.66L7.27 470.66z" stroke="#037b0b"></path><path d="M557.41 462.91L573 462.91L573 483.41L557.41 483.41z" stroke="#e73635"></path><path d="M391.98 443.73L430.62 443.73L430.62 482.37L391.98 482.37z" stroke="#e73635"></path><path d="M23.82 440.74L27.16 440.74L27.16 444.08L23.82 444.08z" stroke="#e73635"></path><path d="M213.19 308.56L224.71 308.56L224.71 331.61L213.19 331.61z" stroke="#e73635"></path><path d="M511.83 139.4 a54.62 54.62 0 1 0 109.24 0 a54.62 54.62 0 1 0 -109.24 0z" stroke="#037b0b"></path><path d="M329.82 544.38 a9.45 9.45 0 1 0 18.9 0 a9.45 9.45 0 1 0 -18.9 0z" stroke="#d3b714"></path><path d="M703.67 489.28L753.27 489.28L753.27 544.05L703.67 544.05z" fill="#037b0b"></path><path d="M983.37 349.19L984.41 349.19L984.41 350.23L983.37 350.23z" fill="#e73635"></path><path d="M254.17 397.44L262.08 397.44L262.08 405.35L254.17 405.35z" stroke="#037b0b"></path><path d="M605.71 204.56L620.4 204.56L620.4 260.05L605.71 260.05z" stroke="#e73635"></path><path d="M540.19 567.97a19.76 19.76 0 1 0-30.05-25.67z" stroke="#037b0b"></path><path d="M1070.34 84.08a16.74 16.74 0 1 0 17.86 28.31z" stroke="#037b0b"></path><path d="M137.61 364.14L176.39 364.14L176.39 402.92L137.61 402.92z" stroke="#d3b714"></path><path d="M1312.72 230.12a12.27 12.27 0 1 0-24.54-0.1z" fill="#037b0b"></path><path d="M285.24 410.36L324.51 410.36L324.51 449.63L285.24 449.63z" fill="#037b0b"></path><path d="M316.35 491.46 a48.98 48.98 0 1 0 97.96 0 a48.98 48.98 0 1 0 -97.96 0z" stroke="#d3b714"></path><path d="M752.85 422.89a6.43 6.43 0 1 0 5.27-11.73z" fill="#e73635"></path><path d="M568.92 123.23L586.79 123.23L586.79 141.1L568.92 141.1z" stroke="#d3b714"></path><path d="M549.62 178.59L561.95 178.59L561.95 203.62L549.62 203.62z" stroke="#037b0b"></path><path d="M69.84 133.85a26.81 26.81 0 1 0-51.78-13.92z" fill="#037b0b"></path><path d="M1012.35 26.91L1015.32 26.91L1015.32 29.88L1012.35 29.88z" fill="#037b0b"></path><path d="M471.17 340.51L494.26 340.51L494.26 363.6L471.17 363.6z" stroke="#e73635"></path><path d="M1247.32 491.82 a5.06 5.06 0 1 0 10.12 0 a5.06 5.06 0 1 0 -10.12 0z" fill="#e73635"></path></g><defs><mask id="SvgjsMask1000"><rect width="1440" height="560" fill="#ffffff"></rect></mask></defs></svg>